<svg width="472" height="472" viewBox="0 0 472 472" fill="none" xmlns="http://www.w3.org/2000/svg">
<mask id="mask0_38_7" style="mask-type:alpha" maskUnits="userSpaceOnUse" x="0" y="0" width="472" height="472">
<rect width="472" height="472" fill="#D9D9D9"/>
</mask>
<g mask="url(#mask0_38_7)">
<path d="M259.704 44.7009C260.386 39.2203 265.388 35.3047 270.827 36.2595C295.744 40.6335 319.637 49.7011 341.222 63.0111C365.647 78.0728 386.546 98.2145 402.498 122.068C418.45 145.922 429.082 172.929 433.672 201.256C438.262 229.582 436.703 258.565 429.1 286.236C421.498 313.907 408.029 339.617 389.61 361.622C371.191 383.626 348.252 401.41 322.351 413.764C296.451 426.118 268.195 432.754 239.502 433.221C214.147 433.634 188.976 429.22 165.322 420.249C160.158 418.29 157.859 412.369 160.073 407.309C162.288 402.25 168.176 399.971 173.35 401.901C194.366 409.738 216.691 413.59 239.177 413.224C265 412.803 290.43 406.831 313.741 395.712C337.051 384.593 357.696 368.588 374.274 348.784C390.851 328.98 402.973 305.841 409.815 280.937C416.658 256.033 418.061 229.949 413.93 204.455C409.799 178.961 400.23 154.654 385.873 133.186C371.516 111.718 352.707 93.5903 330.724 80.0347C311.582 68.2311 290.424 60.1347 268.354 56.1339C262.919 55.1489 259.022 50.1816 259.704 44.7009Z" fill="#7255EE"/>
<path d="M406.424 338.318C348.395 432.304 225.163 461.453 131.177 403.424C37.1908 345.395 8.04171 222.163 66.0706 128.177C124.1 34.1908 247.332 5.04172 341.318 63.0706C435.304 121.1 464.453 244.332 406.424 338.318ZM83.0883 138.684C30.8623 223.271 57.0964 334.181 141.684 386.407C226.271 438.633 337.181 412.399 389.407 327.811C441.633 243.224 415.398 132.314 330.811 80.0883C246.224 27.8623 135.314 54.0964 83.0883 138.684Z" fill="#7255EE" fill-opacity="0.3"/>
<path d="M81.2254 314.571C36.2353 229.031 69.1073 123.216 154.647 78.2254C240.187 33.2353 346.003 66.1073 390.993 151.647C435.983 237.187 403.111 343.003 317.571 387.993C232.031 432.983 126.216 400.111 81.2254 314.571ZM367.76 163.867C329.519 91.1576 239.575 63.2164 166.867 101.458C94.1576 139.7 66.2163 229.643 104.458 302.352C142.7 375.061 232.643 403.002 305.352 364.76C378.061 326.519 406.002 236.575 367.76 163.867Z" fill="#2F96FD" fill-opacity="0.3"/>
<path d="M378.128 149.111C382.882 146.3 384.48 140.148 381.401 135.563C366.034 112.674 345.446 93.6974 321.28 80.2337C297.114 66.7701 270.143 59.2505 242.593 58.2292C237.074 58.0247 232.684 62.6207 232.795 68.1424L232.921 74.3911C233.032 79.9129 237.602 84.2641 243.119 84.5244C266.016 85.6044 288.402 91.9651 308.505 103.165C328.607 114.365 345.797 130.053 358.765 148.954C361.89 153.508 367.995 155.105 372.749 152.293L378.128 149.111Z" fill="#2F96FD"/>
<path d="M292.49 25.0297C293.9 19.8711 299.233 16.8117 304.326 18.4421C340.288 29.9535 372.829 50.3501 398.9 77.8085C427.196 107.611 446.79 144.594 455.554 184.744C464.319 224.895 461.92 266.679 448.617 305.562C435.315 344.446 411.617 378.943 380.096 405.311C348.574 431.679 310.433 448.91 269.811 455.135C229.19 461.36 187.639 456.34 149.668 440.621C111.697 424.902 78.7571 399.083 54.4217 365.967C32.0004 335.456 17.6727 299.824 12.6949 262.394C11.9899 257.093 15.9432 252.384 21.2697 251.908C26.5962 251.432 31.2768 255.369 32.0033 260.667C36.6525 294.573 49.7006 326.839 70.0271 354.5C92.2679 384.765 122.373 408.361 157.076 422.728C191.778 437.094 229.753 441.681 266.878 435.993C304.003 430.304 338.862 414.555 367.67 390.457C396.479 366.358 418.137 334.83 430.294 299.294C442.452 263.757 444.644 225.569 436.634 188.875C428.624 152.18 410.717 118.38 384.856 91.1428C361.221 66.2498 331.767 47.7073 299.215 37.1417C294.129 35.4908 291.081 30.1883 292.49 25.0297Z" fill="#00D674"/>
<path d="M459.674 210.943C471.707 334.623 381.2 444.64 257.52 456.674C133.839 468.707 23.8219 378.2 11.7885 254.519C-0.244944 130.839 90.2625 20.8219 213.943 8.78845C337.623 -3.24499 447.64 87.2625 459.674 210.943ZM31.0634 252.644C42.0611 365.679 142.609 448.396 255.644 437.399C368.679 426.401 451.396 325.853 440.399 212.818C429.401 99.7831 328.853 17.0656 215.818 28.0634C102.783 39.0611 20.0657 139.609 31.0634 252.644Z" fill="#00D674" fill-opacity="0.3"/>
<path d="M112.8 222.76C112.8 222.253 112.987 221.84 113.36 221.52C113.733 221.173 114.187 221 114.72 221H132.44C132.44 222.12 132.213 222.947 131.76 223.48C131.307 224.013 130.6 224.28 129.64 224.28H116.56V233.24H127.76C127.76 234.36 127.533 235.187 127.08 235.72C126.627 236.253 125.933 236.52 125 236.52H116.56V245.72H130.48C131.413 245.72 132.107 245.987 132.56 246.52C133.013 247.053 133.24 247.88 133.24 249H114.72C114.187 249 113.733 248.84 113.36 248.52C112.987 248.173 112.8 247.747 112.8 247.24V222.76ZM137.839 223.88C137.839 222.867 138.146 222.08 138.759 221.52C139.399 220.933 140.279 220.64 141.399 220.64L156.919 244.24L157.199 244L156.039 242.08V220.64C157.266 220.64 158.186 220.907 158.799 221.44C159.439 221.973 159.759 222.747 159.759 223.76V246.4C159.759 247.253 159.452 247.96 158.839 248.52C158.252 249.08 157.492 249.36 156.559 249.36L140.679 225.24L140.399 225.48L141.559 227.4V246.24C141.559 247.253 141.239 248.027 140.599 248.56C139.986 249.093 139.066 249.36 137.839 249.36V223.88ZM172.723 224.32H162.963C162.963 222.107 164.003 221 166.083 221H186.203C186.203 223.213 185.163 224.32 183.083 224.32H176.483V246.24C176.483 247.253 176.163 248.027 175.523 248.56C174.883 249.093 173.949 249.36 172.723 249.36V224.32ZM190.417 222.76C190.417 222.253 190.591 221.84 190.937 221.52C191.311 221.173 191.777 221 192.337 221H203.377C205.964 221 208.017 221.76 209.537 223.28C211.084 224.773 211.857 226.773 211.857 229.28C211.857 232.427 210.484 234.653 207.737 235.96V236.08C208.937 236.587 209.857 237.36 210.497 238.4C211.137 239.413 211.457 240.653 211.457 242.12V246.24C211.457 247.253 211.137 248.027 210.497 248.56C209.857 249.093 208.924 249.36 207.697 249.36V242.36C207.697 240.787 207.337 239.6 206.617 238.8C205.924 237.973 204.884 237.56 203.497 237.56H194.137V246.24C194.137 247.253 193.817 248.027 193.177 248.56C192.564 249.093 191.644 249.36 190.417 249.36V222.76ZM203.257 234.32C204.724 234.32 205.884 233.867 206.737 232.96C207.617 232.053 208.057 230.813 208.057 229.24C208.057 227.64 207.644 226.413 206.817 225.56C205.991 224.707 204.804 224.28 203.257 224.28H194.137V234.32H203.257ZM224.221 238.84L214.261 221.12C214.448 220.987 214.728 220.88 215.101 220.8C215.501 220.693 215.874 220.64 216.221 220.64C217.581 220.64 218.554 221.213 219.141 222.36L225.981 235.2L225.141 236.88L225.421 237.04L233.021 222.36C233.634 221.213 234.621 220.64 235.981 220.64C236.328 220.64 236.688 220.693 237.061 220.8C237.461 220.88 237.754 220.987 237.941 221.12L227.981 238.84V246.24C227.981 247.253 227.661 248.027 227.021 248.56C226.381 249.093 225.448 249.36 224.221 249.36V238.84Z" fill="#FFC600"/>
<path d="M262.039 249.36C261.079 249.36 260.292 249.133 259.679 248.68C259.066 248.2 258.652 247.533 258.439 246.68L251.839 221C252.239 220.76 252.746 220.64 253.359 220.64C254.132 220.64 254.786 220.84 255.319 221.24C255.852 221.613 256.199 222.133 256.359 222.8L260.719 241.76L260.079 244.12L260.319 244.2L266.759 221.88C266.866 221.48 267.066 221.173 267.359 220.96C267.679 220.747 268.052 220.64 268.479 220.64C268.879 220.64 269.239 220.747 269.559 220.96C269.879 221.173 270.092 221.48 270.199 221.88L275.759 241.92L275.199 244.36L275.439 244.44L280.599 222.8C280.759 222.133 281.092 221.613 281.599 221.24C282.132 220.84 282.772 220.64 283.519 220.64C284.132 220.64 284.666 220.76 285.119 221L278.519 246.68C278.306 247.533 277.879 248.2 277.239 248.68C276.626 249.133 275.839 249.36 274.879 249.36L268.039 225.16L267.799 225.24L268.319 227.12L262.039 249.36ZM293.346 249.36C291.053 249.36 289.2 248.747 287.786 247.52C286.4 246.293 285.706 244.68 285.706 242.68C285.706 240.653 286.44 239.027 287.906 237.8C289.373 236.547 291.306 235.92 293.706 235.92C296.266 235.92 298.373 236.827 300.026 238.64L300.186 238.48C299.893 238.16 299.56 237.827 299.186 237.48V235.8C299.186 234.44 298.76 233.387 297.906 232.64C297.053 231.893 295.84 231.52 294.266 231.52C291.466 231.52 289.466 232.627 288.266 234.84C287.84 234.627 287.48 234.347 287.186 234C286.92 233.627 286.786 233.253 286.786 232.88C286.786 232.16 287.146 231.48 287.866 230.84C288.586 230.173 289.533 229.64 290.706 229.24C291.906 228.84 293.16 228.64 294.466 228.64C297 228.64 298.986 229.267 300.426 230.52C301.893 231.773 302.626 233.507 302.626 235.72V246.68C302.626 247.613 302.36 248.293 301.826 248.72C301.293 249.147 300.453 249.36 299.306 249.36V247.48C299.866 246.893 300.173 246.547 300.226 246.44L300.066 246.28C298.333 248.333 296.093 249.36 293.346 249.36ZM293.946 246.6C295.6 246.6 296.893 246.253 297.826 245.56C298.786 244.867 299.266 243.907 299.266 242.68C299.266 241.453 298.8 240.48 297.866 239.76C296.933 239.04 295.653 238.68 294.026 238.68C292.506 238.68 291.306 239.04 290.426 239.76C289.573 240.453 289.146 241.427 289.146 242.68C289.146 243.933 289.56 244.907 290.386 245.6C291.24 246.267 292.426 246.6 293.946 246.6ZM314.198 249.36C312.304 249.36 310.891 248.827 309.958 247.76C309.024 246.667 308.558 245.24 308.558 243.48V231.8H304.838C304.838 230.893 305.038 230.2 305.438 229.72C305.838 229.24 306.384 229 307.078 229H308.598V225.2C308.598 224.32 308.878 223.68 309.438 223.28C310.024 222.853 310.891 222.64 312.038 222.64V229H317.358C317.358 230.867 316.518 231.8 314.838 231.8H312.078V243.36C312.078 244.427 312.264 245.187 312.638 245.64C313.038 246.067 313.744 246.28 314.758 246.28C315.691 246.28 316.571 246.04 317.398 245.56C317.744 245.907 317.918 246.373 317.918 246.96C317.918 247.6 317.584 248.16 316.918 248.64C316.251 249.12 315.344 249.36 314.198 249.36ZM330.136 249.36C328.509 249.36 327.056 249.067 325.776 248.48C324.496 247.893 323.496 247.067 322.776 246C322.083 244.933 321.736 243.72 321.736 242.36V235.88C321.736 234.467 322.083 233.213 322.776 232.12C323.496 231.027 324.483 230.173 325.736 229.56C326.989 228.947 328.429 228.64 330.056 228.64C331.576 228.64 332.923 228.867 334.096 229.32C335.296 229.747 336.229 230.36 336.896 231.16C337.563 231.96 337.896 232.867 337.896 233.88C337.896 234.547 337.629 235.093 337.096 235.52C336.589 235.92 335.923 236.093 335.096 236.04C335.096 234.76 334.629 233.72 333.696 232.92C332.789 232.12 331.603 231.72 330.136 231.72C328.669 231.72 327.483 232.12 326.576 232.92C325.669 233.693 325.216 234.707 325.216 235.96V242.2C325.216 243.4 325.683 244.387 326.616 245.16C327.549 245.907 328.749 246.28 330.216 246.28C331.683 246.28 332.869 245.88 333.776 245.08C334.709 244.28 335.176 243.253 335.176 242C336.029 241.947 336.709 242.12 337.216 242.52C337.749 242.893 338.016 243.427 338.016 244.12C338.016 245.133 337.683 246.04 337.016 246.84C336.349 247.64 335.416 248.267 334.216 248.72C333.016 249.147 331.656 249.36 330.136 249.36ZM342.605 223.6C342.605 222.64 342.898 221.907 343.485 221.4C344.071 220.893 344.938 220.64 346.085 220.64V231.16C345.711 231.587 345.418 231.96 345.205 232.28L345.365 232.44C346.191 231.32 347.231 230.413 348.485 229.72C349.738 229 351.098 228.64 352.565 228.64C354.725 228.64 356.431 229.28 357.685 230.56C358.938 231.84 359.565 233.493 359.565 235.52V246.8C359.565 247.68 359.271 248.333 358.685 248.76C358.125 249.16 357.258 249.36 356.085 249.36V235.88C356.085 234.6 355.725 233.587 355.005 232.84C354.285 232.093 353.191 231.72 351.725 231.72C350.738 231.72 349.805 231.933 348.925 232.36C348.071 232.76 347.378 233.32 346.845 234.04C346.338 234.733 346.085 235.493 346.085 236.32V246.8C346.085 247.68 345.791 248.333 345.205 248.76C344.645 249.16 343.778 249.36 342.605 249.36V223.6Z" fill="#FF4320"/>
<path d="M242.94 24.18C241.753 24.18 240.693 23.9533 239.76 23.5C238.84 23.0467 238.12 22.4133 237.6 21.6C237.08 20.7867 236.82 19.86 236.82 18.82V15.14C236.82 14.1 237.073 13.18 237.58 12.38C238.1 11.5667 238.813 10.94 239.72 10.5C240.627 10.0467 241.667 9.82 242.84 9.82C244.013 9.82 245.053 10 245.96 10.36C246.88 10.7067 247.593 11.2 248.1 11.84C248.607 12.4667 248.86 13.1867 248.86 14C248.86 14.4933 248.693 14.8867 248.36 15.18C248.04 15.46 247.607 15.6 247.06 15.6C246.793 15.6 246.5 15.56 246.18 15.48C246.207 15.16 246.22 14.8467 246.22 14.54C246.22 13.8333 245.907 13.26 245.28 12.82C244.653 12.38 243.84 12.16 242.84 12.16C241.853 12.16 241.047 12.44 240.42 13C239.807 13.5467 239.5 14.26 239.5 15.14V18.82C239.5 19.7133 239.82 20.44 240.46 21C241.1 21.56 241.927 21.84 242.94 21.84C243.94 21.84 244.753 21.62 245.38 21.18C246.007 20.74 246.32 20.1733 246.32 19.48C246.32 19.16 246.307 18.8533 246.28 18.56C246.613 18.4933 246.893 18.46 247.12 18.46C247.68 18.46 248.127 18.6067 248.46 18.9C248.793 19.1933 248.96 19.5933 248.96 20.1C248.96 20.8867 248.707 21.5933 248.2 22.22C247.693 22.8333 246.98 23.3133 246.06 23.66C245.153 24.0067 244.113 24.18 242.94 24.18ZM256.411 24.18C255.318 24.18 254.318 23.9667 253.411 23.54C252.504 23.1 251.784 22.5067 251.251 21.76C250.731 21.0133 250.471 20.2 250.471 19.32V14.66C250.471 13.78 250.731 12.9733 251.251 12.24C251.784 11.4933 252.504 10.9067 253.411 10.48C254.318 10.04 255.318 9.82 256.411 9.82C257.504 9.82 258.504 10.04 259.411 10.48C260.331 10.9067 261.051 11.4933 261.571 12.24C262.104 12.9733 262.371 13.78 262.371 14.66V19.32C262.371 20.2 262.104 21.0133 261.571 21.76C261.051 22.5067 260.331 23.1 259.411 23.54C258.504 23.9667 257.504 24.18 256.411 24.18ZM256.411 21.84C257.411 21.84 258.211 21.6067 258.811 21.14C259.411 20.66 259.711 20.04 259.711 19.28V14.72C259.711 13.9467 259.411 13.3267 258.811 12.86C258.211 12.38 257.411 12.14 256.411 12.14C255.424 12.14 254.631 12.38 254.031 12.86C253.431 13.3267 253.131 13.9467 253.131 14.72V19.28C253.131 20.04 253.431 20.66 254.031 21.14C254.631 21.6067 255.424 21.84 256.411 21.84ZM265.649 24C265.276 24 264.956 23.8867 264.689 23.66C264.436 23.42 264.309 23.1267 264.309 22.78V11.22C264.309 10.8733 264.436 10.5867 264.689 10.36C264.942 10.12 265.262 10 265.649 10H270.089C271.276 10 272.322 10.2267 273.229 10.68C274.149 11.1333 274.856 11.7733 275.349 12.6C275.856 13.4133 276.109 14.3467 276.109 15.4V18.56C276.109 19.6133 275.856 20.5533 275.349 21.38C274.842 22.2067 274.129 22.8533 273.209 23.32C272.302 23.7733 271.262 24 270.089 24H265.649ZM269.889 21.7C271.049 21.7 271.929 21.44 272.529 20.92C273.129 20.3867 273.429 19.6067 273.429 18.58V15.36C273.429 14.36 273.129 13.6 272.529 13.08C271.929 12.56 271.049 12.3 269.889 12.3H266.989V21.7H269.889ZM278.118 11.22C278.118 10.8867 278.244 10.6 278.498 10.36C278.764 10.12 279.084 10 279.458 10H288.378C288.378 10.8 288.238 11.3867 287.957 11.76C287.691 12.12 287.251 12.3 286.638 12.3H280.798V15.78H286.118C286.118 16.58 285.978 17.1667 285.698 17.54C285.431 17.9 284.991 18.08 284.378 18.08H280.798V21.7H287.058C287.658 21.7 288.091 21.8867 288.358 22.26C288.638 22.62 288.778 23.2 288.778 24H279.458C279.084 24 278.764 23.8867 278.498 23.66C278.244 23.42 278.118 23.1267 278.118 22.78V11.22Z" fill="#00D674"/>
<path d="M118.94 50.18C117.753 50.18 116.693 49.9533 115.76 49.5C114.84 49.0467 114.12 48.4133 113.6 47.6C113.08 46.7867 112.82 45.86 112.82 44.82V41.14C112.82 40.1 113.073 39.18 113.58 38.38C114.1 37.5667 114.813 36.94 115.72 36.5C116.627 36.0467 117.667 35.82 118.84 35.82C120.013 35.82 121.053 36 121.96 36.36C122.88 36.7067 123.593 37.2 124.1 37.84C124.607 38.4667 124.86 39.1867 124.86 40C124.86 40.4933 124.693 40.8867 124.36 41.18C124.04 41.46 123.607 41.6 123.06 41.6C122.793 41.6 122.5 41.56 122.18 41.48C122.207 41.16 122.22 40.8467 122.22 40.54C122.22 39.8333 121.907 39.26 121.28 38.82C120.653 38.38 119.84 38.16 118.84 38.16C117.853 38.16 117.047 38.44 116.42 39C115.807 39.5467 115.5 40.26 115.5 41.14V44.82C115.5 45.7133 115.82 46.44 116.46 47C117.1 47.56 117.927 47.84 118.94 47.84C119.94 47.84 120.753 47.62 121.38 47.18C122.007 46.74 122.32 46.1733 122.32 45.48C122.32 45.16 122.307 44.8533 122.28 44.56C122.613 44.4933 122.893 44.46 123.12 44.46C123.68 44.46 124.127 44.6067 124.46 44.9C124.793 45.1933 124.96 45.5933 124.96 46.1C124.96 46.8867 124.707 47.5933 124.2 48.22C123.693 48.8333 122.98 49.3133 122.06 49.66C121.153 50.0067 120.113 50.18 118.94 50.18ZM132.411 50.18C131.318 50.18 130.318 49.9667 129.411 49.54C128.504 49.1 127.784 48.5067 127.251 47.76C126.731 47.0133 126.471 46.2 126.471 45.32V40.66C126.471 39.78 126.731 38.9733 127.251 38.24C127.784 37.4933 128.504 36.9067 129.411 36.48C130.318 36.04 131.318 35.82 132.411 35.82C133.504 35.82 134.504 36.04 135.411 36.48C136.331 36.9067 137.051 37.4933 137.571 38.24C138.104 38.9733 138.371 39.78 138.371 40.66V45.32C138.371 46.2 138.104 47.0133 137.571 47.76C137.051 48.5067 136.331 49.1 135.411 49.54C134.504 49.9667 133.504 50.18 132.411 50.18ZM132.411 47.84C133.411 47.84 134.211 47.6067 134.811 47.14C135.411 46.66 135.711 46.04 135.711 45.28V40.72C135.711 39.9467 135.411 39.3267 134.811 38.86C134.211 38.38 133.411 38.14 132.411 38.14C131.424 38.14 130.631 38.38 130.031 38.86C129.431 39.3267 129.131 39.9467 129.131 40.72V45.28C129.131 46.04 129.431 46.66 130.031 47.14C130.631 47.6067 131.424 47.84 132.411 47.84ZM140.309 37.82C140.309 37.2067 140.549 36.72 141.029 36.36C141.509 35.9867 142.162 35.8 142.989 35.8L147.189 46.36L146.729 47.62L146.929 47.7L151.429 35.82C152.242 35.82 152.889 36.0067 153.369 36.38C153.862 36.74 154.109 37.2267 154.109 37.84V50.18C152.362 50.18 151.489 49.5267 151.489 48.22V41.82L152.169 39.98L151.949 39.9L148.289 49.46C148.196 49.6733 148.049 49.8467 147.849 49.98C147.662 50.1133 147.449 50.18 147.209 50.18C146.969 50.18 146.749 50.1133 146.549 49.98C146.362 49.8467 146.222 49.6667 146.129 49.44L142.469 39.88L142.249 39.96L142.909 41.8V48.22C142.909 49.5267 142.042 50.18 140.309 50.18V37.82ZM156.461 37.82C156.461 37.2067 156.701 36.72 157.181 36.36C157.661 35.9867 158.315 35.8 159.141 35.8L163.341 46.36L162.881 47.62L163.081 47.7L167.581 35.82C168.395 35.82 169.041 36.0067 169.521 36.38C170.015 36.74 170.261 37.2267 170.261 37.84V50.18C168.515 50.18 167.641 49.5267 167.641 48.22V41.82L168.321 39.98L168.101 39.9L164.441 49.46C164.348 49.6733 164.201 49.8467 164.001 49.98C163.815 50.1133 163.601 50.18 163.361 50.18C163.121 50.18 162.901 50.1133 162.701 49.98C162.515 49.8467 162.375 49.6667 162.281 49.44L158.621 39.88L158.401 39.96L159.061 41.8V48.22C159.061 49.5267 158.195 50.18 156.461 50.18V37.82ZM178.414 50.18C177.294 50.18 176.28 49.9533 175.374 49.5C174.48 49.0467 173.78 48.42 173.274 47.62C172.767 46.82 172.514 45.9133 172.514 44.9V37.8C172.514 37.16 172.74 36.6733 173.194 36.34C173.647 35.9933 174.314 35.82 175.194 35.82V44.9C175.194 45.7933 175.487 46.5067 176.074 47.04C176.66 47.5733 177.44 47.84 178.414 47.84C179.387 47.84 180.167 47.5733 180.754 47.04C181.34 46.5067 181.634 45.7933 181.634 44.9V37.8C181.634 37.1467 181.86 36.6533 182.314 36.32C182.767 35.9867 183.434 35.82 184.314 35.82V44.9C184.314 45.9133 184.06 46.82 183.554 47.62C183.047 48.42 182.34 49.0467 181.434 49.5C180.54 49.9533 179.534 50.18 178.414 50.18ZM186.559 37.94C186.559 37.2867 186.779 36.7733 187.219 36.4C187.659 36.0133 188.252 35.82 188.999 35.82L195.759 46.38L195.959 46.22L195.139 44.86V35.82C196.006 35.82 196.659 35.9867 197.099 36.32C197.552 36.6533 197.779 37.1467 197.779 37.8V48.36C197.779 48.8533 197.566 49.28 197.139 49.64C196.726 50 196.246 50.18 195.699 50.18L188.579 39.04L188.379 39.22L189.199 40.58V48.2C189.199 48.8533 188.972 49.3467 188.519 49.68C188.079 50.0133 187.426 50.18 186.559 50.18V37.94ZM200.514 37.82C200.514 37.1933 200.747 36.7067 201.214 36.36C201.68 36 202.34 35.82 203.194 35.82V48.18C203.194 48.82 202.96 49.3133 202.494 49.66C202.027 50.0067 201.367 50.18 200.514 50.18V37.82ZM211.694 50.18C210.507 50.18 209.447 49.9533 208.514 49.5C207.594 49.0467 206.874 48.4133 206.354 47.6C205.834 46.7867 205.574 45.86 205.574 44.82V41.14C205.574 40.1 205.827 39.18 206.334 38.38C206.854 37.5667 207.567 36.94 208.474 36.5C209.381 36.0467 210.421 35.82 211.594 35.82C212.767 35.82 213.807 36 214.714 36.36C215.634 36.7067 216.347 37.2 216.854 37.84C217.361 38.4667 217.614 39.1867 217.614 40C217.614 40.4933 217.447 40.8867 217.114 41.18C216.794 41.46 216.361 41.6 215.814 41.6C215.547 41.6 215.254 41.56 214.934 41.48C214.961 41.16 214.974 40.8467 214.974 40.54C214.974 39.8333 214.661 39.26 214.034 38.82C213.407 38.38 212.594 38.16 211.594 38.16C210.607 38.16 209.801 38.44 209.174 39C208.561 39.5467 208.254 40.26 208.254 41.14V44.82C208.254 45.7133 208.574 46.44 209.214 47C209.854 47.56 210.681 47.84 211.694 47.84C212.694 47.84 213.507 47.62 214.134 47.18C214.761 46.74 215.074 46.1733 215.074 45.48C215.074 45.16 215.061 44.8533 215.034 44.56C215.367 44.4933 215.647 44.46 215.874 44.46C216.434 44.46 216.881 44.6067 217.214 44.9C217.547 45.1933 217.714 45.5933 217.714 46.1C217.714 46.8867 217.461 47.5933 216.954 48.22C216.447 48.8333 215.734 49.3133 214.814 49.66C213.907 50.0067 212.867 50.18 211.694 50.18ZM221.065 50.18C220.492 50.1133 220.038 49.9133 219.705 49.58C219.385 49.2467 219.225 48.8267 219.225 48.32C219.225 47.9333 219.318 47.5333 219.505 47.12L224.085 36.7C224.338 36.1133 224.778 35.82 225.405 35.82C226.018 35.82 226.452 36.1133 226.705 36.7L231.285 47.12C231.472 47.56 231.565 47.96 231.565 48.32C231.565 48.8267 231.398 49.2467 231.065 49.58C230.745 49.9133 230.292 50.1133 229.705 50.18L228.025 46.38H222.765L221.065 50.18ZM227.205 44.1L225.005 38.62L224.765 38.72L225.245 39.96L223.565 44.1H227.205ZM235.446 38.32H230.626C230.626 36.7733 231.326 36 232.726 36H242.946C242.946 37.5467 242.24 38.32 240.826 38.32H238.126V48.2C238.126 48.84 237.9 49.3333 237.446 49.68C236.993 50.0133 236.326 50.18 235.446 50.18V38.32ZM244.664 37.22C244.664 36.8867 244.791 36.6 245.044 36.36C245.311 36.12 245.631 36 246.004 36H254.924C254.924 36.8 254.784 37.3867 254.504 37.76C254.238 38.12 253.798 38.3 253.184 38.3H247.344V41.78H252.664C252.664 42.58 252.524 43.1667 252.244 43.54C251.978 43.9 251.538 44.08 250.924 44.08H247.344V47.7H253.604C254.204 47.7 254.638 47.8867 254.904 48.26C255.184 48.62 255.324 49.2 255.324 50H246.004C245.631 50 245.311 49.8867 245.044 49.66C244.791 49.42 244.664 49.1267 244.664 48.78V37.22Z" fill="#7255EE"/>
<path d="M171.68 79.18C170.48 79.18 169.433 79.0333 168.54 78.74C167.647 78.4467 166.96 78.0333 166.48 77.5C166.013 76.9533 165.78 76.32 165.78 75.6C165.78 74.5067 166.52 73.96 168 73.96C168.053 74.9733 168.393 75.74 169.02 76.26C169.66 76.78 170.553 77.04 171.7 77.04C172.647 77.04 173.38 76.88 173.9 76.56C174.42 76.2267 174.68 75.7667 174.68 75.18C174.68 74.7933 174.58 74.48 174.38 74.24C174.18 73.9867 173.84 73.7667 173.36 73.58C172.88 73.38 172.18 73.18 171.26 72.98C169.953 72.6733 168.92 72.3333 168.16 71.96C167.413 71.5867 166.873 71.14 166.54 70.62C166.207 70.0867 166.04 69.4267 166.04 68.64C166.04 67.88 166.26 67.2133 166.7 66.64C167.153 66.0667 167.787 65.62 168.6 65.3C169.427 64.98 170.373 64.82 171.44 64.82C172.467 64.82 173.38 64.96 174.18 65.24C174.993 65.5067 175.627 65.8867 176.08 66.38C176.547 66.8733 176.78 67.44 176.78 68.08C176.78 69.0667 176.067 69.58 174.64 69.62C174.56 68.7 174.267 68.0267 173.76 67.6C173.253 67.1733 172.48 66.96 171.44 66.96C170.547 66.96 169.86 67.1067 169.38 67.4C168.9 67.6933 168.66 68.1067 168.66 68.64C168.66 69.0133 168.753 69.3267 168.94 69.58C169.127 69.82 169.44 70.0333 169.88 70.22C170.32 70.3933 170.947 70.5733 171.76 70.76C173.133 71.0667 174.22 71.4133 175.02 71.8C175.82 72.1733 176.4 72.6333 176.76 73.18C177.12 73.7133 177.3 74.3733 177.3 75.16C177.3 75.9733 177.067 76.6867 176.6 77.3C176.147 77.9 175.493 78.3667 174.64 78.7C173.8 79.02 172.813 79.18 171.68 79.18ZM182.528 67.32H177.708C177.708 65.7733 178.408 65 179.808 65H190.028C190.028 66.5467 189.322 67.32 187.908 67.32H185.208V77.2C185.208 77.84 184.982 78.3333 184.528 78.68C184.075 79.0133 183.408 79.18 182.528 79.18V67.32ZM190.901 79.18C190.327 79.1133 189.874 78.9133 189.541 78.58C189.221 78.2467 189.061 77.8267 189.061 77.32C189.061 76.9333 189.154 76.5333 189.341 76.12L193.921 65.7C194.174 65.1133 194.614 64.82 195.241 64.82C195.854 64.82 196.287 65.1133 196.541 65.7L201.121 76.12C201.307 76.56 201.401 76.96 201.401 77.32C201.401 77.8267 201.234 78.2467 200.901 78.58C200.581 78.9133 200.127 79.1133 199.541 79.18L197.861 75.38H192.601L190.901 79.18ZM197.041 73.1L194.841 67.62L194.601 67.72L195.081 68.96L193.401 73.1H197.041ZM203.348 66.22C203.348 65.8867 203.475 65.6 203.728 65.36C203.995 65.12 204.315 65 204.688 65H213.748C213.748 65.8 213.608 66.3867 213.328 66.76C213.061 67.12 212.621 67.3 212.008 67.3H206.028V70.68H211.348C211.348 71.48 211.208 72.0667 210.928 72.44C210.661 72.8 210.221 72.98 209.608 72.98H206.028V77.28C206.028 77.9467 205.815 78.4333 205.388 78.74C204.961 79.0333 204.281 79.18 203.348 79.18V66.22ZM215.633 66.22C215.633 65.8867 215.76 65.6 216.013 65.36C216.28 65.12 216.6 65 216.973 65H226.033C226.033 65.8 225.893 66.3867 225.613 66.76C225.346 67.12 224.906 67.3 224.293 67.3H218.313V70.68H223.633C223.633 71.48 223.493 72.0667 223.213 72.44C222.946 72.8 222.506 72.98 221.893 72.98H218.313V77.28C218.313 77.9467 218.1 78.4333 217.673 78.74C217.246 79.0333 216.566 79.18 215.633 79.18V66.22Z" fill="#2F96FD"/>
</g>
</svg>
